<?xml version="1.0" standalone="no"?>
<!DOCTYPE svg PUBLIC "-//W3C//DTD SVG 20010904//EN"
 "http://www.w3.org/TR/2001/REC-SVG-20010904/DTD/svg10.dtd">
<svg version="1.0" xmlns="http://www.w3.org/2000/svg"
 width="1707.000000pt" height="1707.000000pt" viewBox="0 0 1707.000000 1707.000000"
 preserveAspectRatio="xMidYMid meet">
<metadata>
Created by potrace 1.14, written by Peter Selinger 2001-2017
</metadata>
<g transform="translate(0.000000,1707.000000) scale(0.100000,-0.100000)"
fill="#000000" stroke="none">
<path d="M8458 17065 c-2 -1 -64 -6 -138 -9 -74 -4 -153 -8 -175 -10 -22 -3
-76 -7 -120 -11 -44 -4 -91 -8 -105 -10 -14 -1 -56 -5 -95 -9 -38 -4 -77 -9
-85 -11 -8 -2 -37 -6 -65 -10 -82 -9 -247 -34 -306 -45 -30 -6 -70 -13 -89
-16 -19 -3 -43 -7 -52 -10 -10 -3 -30 -8 -45 -10 -63 -11 -221 -46 -268 -59
-27 -8 -65 -17 -84 -20 -19 -3 -38 -8 -43 -11 -5 -3 -18 -7 -31 -9 -59 -11
-373 -109 -537 -168 -306 -110 -709 -297 -995 -462 -263 -151 -681 -448 -875
-621 -14 -12 -50 -44 -80 -71 -150 -131 -365 -358 -552 -581 -48 -58 -191
-256 -250 -347 -187 -286 -342 -594 -456 -905 -60 -161 -139 -424 -158 -520
-3 -14 -11 -50 -19 -80 -11 -45 -26 -121 -26 -132 0 -2 -4 -21 -9 -43 -6 -22
-12 -56 -16 -75 -3 -19 -9 -60 -14 -90 -5 -30 -14 -95 -20 -145 -6 -49 -13
-108 -16 -130 -16 -137 -28 -385 -28 -605 0 -185 10 -453 18 -500 2 -14 7 -59
10 -100 7 -77 9 -93 27 -215 16 -107 33 -206 43 -255 30 -139 42 -189 67 -280
165 -586 415 -1072 786 -1525 74 -91 159 -182 287 -310 455 -453 955 -774
1646 -1057 52 -21 104 -43 115 -48 22 -11 332 -132 392 -153 21 -8 112 -42
203 -77 362 -137 943 -335 2082 -709 853 -280 1219 -467 1523 -775 95 -96 117
-126 163 -214 l54 -103 -1 -147 c-1 -253 -16 -365 -64 -493 -146 -388 -466
-633 -1005 -769 -132 -33 -318 -65 -447 -76 -33 -3 -71 -7 -85 -9 -34 -6 -306
-18 -410 -19 -87 0 -364 12 -410 18 -14 2 -46 6 -70 10 -25 3 -65 8 -90 11
-198 24 -516 107 -720 187 -163 65 -570 276 -690 359 -14 9 -68 45 -120 79
-86 57 -348 246 -360 260 -3 3 -48 40 -100 82 -52 41 -106 85 -120 97 -14 12
-38 34 -55 48 -119 104 -183 160 -201 177 -36 35 -236 211 -248 218 -6 3 -25
-10 -42 -31 -42 -49 -853 -1048 -962 -1184 -48 -60 -92 -114 -97 -120 -6 -7
-28 -34 -50 -62 -22 -27 -42 -52 -45 -55 -3 -3 -41 -50 -85 -105 -44 -55 -82
-102 -85 -105 -3 -3 -86 -106 -185 -230 -99 -124 -182 -227 -185 -230 -3 -3
-80 -97 -171 -210 -287 -356 -460 -571 -556 -690 l-93 -115 0 -111 0 -112 132
-104 c73 -57 142 -110 154 -118 21 -15 269 -201 289 -217 6 -5 91 -66 190
-136 99 -71 187 -134 196 -141 9 -8 20 -15 25 -17 5 -2 88 -56 184 -120 395
-262 904 -546 1240 -694 36 -15 88 -38 115 -50 28 -12 82 -34 120 -50 39 -15
84 -33 100 -40 17 -7 53 -20 80 -30 28 -9 59 -21 70 -26 65 -27 466 -149 545
-165 14 -2 39 -9 55 -14 135 -41 584 -126 883 -166 17 -2 49 -6 70 -9 20 -3
62 -7 92 -10 30 -3 73 -8 95 -11 22 -3 60 -8 85 -10 136 -11 178 -15 209 -19
18 -2 77 -7 130 -10 53 -3 116 -8 141 -10 300 -26 1169 -26 1430 0 19 2 72 6
117 10 45 3 90 7 100 9 10 2 54 7 98 11 43 3 82 8 85 10 3 2 39 6 80 10 41 4
77 8 80 10 3 1 28 6 55 9 28 4 76 11 107 16 62 11 74 13 158 29 30 6 65 13 76
15 63 12 227 49 279 62 33 9 68 18 78 19 122 24 615 186 822 270 423 171 775
354 1197 619 196 123 505 354 708 529 136 118 441 423 556 557 99 115 225 278
295 380 24 36 46 67 49 70 10 9 118 185 174 284 72 124 191 370 244 501 127
315 237 718 282 1030 6 44 13 91 16 105 2 14 7 54 10 90 3 36 8 76 10 90 25
164 25 856 -1 1065 -2 17 -6 62 -10 100 -3 39 -10 102 -16 140 -5 39 -12 88
-15 110 -2 22 -9 65 -14 95 -5 30 -11 71 -14 90 -5 31 -19 106 -32 165 -2 11
-6 29 -8 40 -110 524 -276 951 -574 1477 -53 94 -284 422 -322 458 -3 3 -41
48 -85 100 -76 91 -346 367 -430 441 -281 246 -527 423 -760 549 -201 109
-506 254 -685 327 -47 19 -98 40 -115 48 -40 17 -188 75 -305 120 -114 43
-119 44 -125 45 -3 0 -18 6 -33 13 -15 8 -67 28 -117 45 -49 18 -128 46 -175
62 -47 17 -112 40 -145 51 -33 12 -123 42 -200 69 -166 57 -667 222 -777 256
-43 13 -114 35 -158 49 -44 14 -115 36 -157 49 -230 71 -577 180 -638 201
-138 46 -354 124 -387 139 -18 8 -62 27 -98 41 -114 47 -401 195 -489 253
-162 105 -281 208 -379 326 -44 54 -98 169 -110 236 -11 55 -9 231 1 260 4 8
8 29 11 45 12 82 70 215 131 300 98 137 244 254 416 334 169 79 420 151 609
176 19 3 53 8 75 11 65 9 654 12 725 4 36 -4 97 -11 135 -14 39 -4 81 -8 95
-10 14 -3 59 -10 100 -16 232 -35 509 -111 750 -203 150 -58 484 -220 552
-268 14 -11 29 -19 33 -19 13 0 269 -173 385 -260 66 -50 182 -141 257 -203
167 -137 223 -178 234 -172 6 5 152 177 371 440 72 87 354 427 492 595 93 113
172 207 175 210 3 3 35 41 71 85 35 44 67 82 70 85 3 3 25 30 50 60 25 30 47
57 50 60 3 3 34 41 70 85 35 44 70 86 77 93 8 8 26 30 41 50 15 20 36 45 47
57 11 12 54 63 95 114 41 52 80 99 85 105 6 6 96 115 200 241 104 127 199 241
211 255 12 14 89 106 170 205 81 99 179 219 218 266 124 150 141 172 144 184
4 15 -217 180 -550 411 -110 77 -404 264 -414 264 -3 0 -25 14 -49 30 -24 17
-47 30 -51 30 -4 0 -15 6 -23 14 -9 7 -43 28 -76 45 -33 18 -76 42 -95 54
-227 137 -785 403 -1145 545 -270 107 -763 267 -975 317 -8 1 -53 12 -100 23
-164 40 -262 62 -291 67 -16 3 -61 12 -99 20 -38 8 -84 17 -102 20 -18 3 -69
12 -113 20 -44 8 -98 17 -120 21 -68 9 -99 14 -125 19 -14 2 -46 7 -72 10 -26
3 -62 7 -80 9 -18 3 -60 8 -93 11 -33 4 -73 8 -90 10 -16 2 -61 7 -100 10 -38
4 -86 8 -105 10 -35 4 -176 14 -305 21 -85 5 -812 13 -817 9z"/>
</g>
</svg>
